<svg viewBox="0 0 512 512" fill="currentColor" xmlns="http://www.w3.org/2000/svg">
  <path
    d="M190.141 129.22L174.185 104.372C167.881 94.5482 161.209 92.5246 153.617 97.4058C146.099 102.226 145.056 110.59 150.784 119.519L166.691 144.293L158.106 149.812L118.872 88.7103L127.457 83.1913L140.445 103.415L140.604 103.305C140.727 97.5039 143.781 92.6349 149.484 88.9801C160.387 81.9771 173.007 83.6696 181.065 96.2162L198.726 123.713L190.141 129.232V129.22Z"
  />
  <path
    d="M253.904 113.215L252.812 104.85L252.616 104.875C249.66 111.792 243.271 115.986 235.593 116.98C219.833 119.028 205.447 108.824 203.423 93.2604C201.191 76.041 211.972 62.3662 227.842 60.3057C235.728 59.2878 242.719 61.3482 247.698 66.9285L247.894 66.904L246.913 59.3123L257.031 58L264.034 111.902L253.916 113.215H253.904ZM250.617 86.3432C249.256 75.8326 240.523 68.0691 229.338 69.5163C219.22 70.8286 212.07 80.5666 213.456 91.1632C214.768 101.281 224.187 109.057 234.305 107.745C244.816 106.383 251.942 96.5473 250.617 86.3309V86.3432Z"
  />
  <path
    d="M271.651 130.495L295.946 62.1822L304.728 65.3096L301.932 73.1712L302.115 73.2325C308.665 68.5842 316.318 67.8729 323.615 70.4607C338.872 75.8816 345.936 91.7273 340.319 107.536C335.193 121.959 319.801 129.809 305.096 124.584C297.332 121.824 291.519 116.207 290.158 109.486L289.974 109.425L281.266 133.929L271.651 130.508V130.495ZM330.912 103.55C334.236 94.217 330.029 82.6148 319.764 78.96C310.149 75.5382 299.699 81.511 296.314 91.0282C292.758 101.012 297.234 111.866 307.217 115.422C317.115 118.942 327.429 113.337 330.912 103.538V103.55Z"
  />
  <path
    d="M325.847 150.719L377.824 100.153L384.324 106.837L378.351 112.651L378.486 112.785C386.409 111.51 393.596 114.245 398.993 119.801C410.276 131.403 409.626 148.745 397.607 160.445C386.63 171.115 369.349 171.361 358.471 160.188C352.719 154.276 349.984 146.684 351.737 140.037L351.603 139.902L332.961 158.029L325.847 150.719ZM390.91 152.731C398.011 145.826 399.36 133.561 391.769 125.749C384.655 118.439 372.636 119.175 365.4 126.215C357.808 133.598 357.023 145.323 364.407 152.915C371.729 160.445 383.466 159.979 390.91 152.719V152.731Z"
  />
  <path
    d="M367.313 200.489L388.114 201.139L430.316 162.052L434.192 172.329L400.354 202.181L445.61 202.623L449.485 212.9L371.042 210.386L367.301 200.476L367.313 200.489Z"
  />
  <path
    d="M381.601 237.662L453.95 242.495L453.324 251.791L445.009 251.239V251.435C451.251 256.476 454.011 263.639 453.496 271.377C452.417 287.53 439.085 298.641 422.356 297.525C407.087 296.507 395.35 283.826 396.38 268.262C396.932 260.033 400.746 252.919 406.854 249.792V249.596L380.927 247.866L381.601 237.687V237.662ZM423.607 287.37C433.492 288.033 443.513 280.833 444.236 269.967C444.911 259.787 436.338 251.35 426.256 250.675C415.684 249.964 406.449 257.224 405.738 267.796C405.039 278.27 413.232 286.683 423.607 287.37Z"
  />
  <path
    d="M373.961 337.851L399.863 352.041C410.104 357.646 416.923 356.235 421.252 348.325C425.545 340.5 422.454 332.651 413.158 327.561L387.341 313.42L392.247 304.467L455.924 339.347L451.018 348.3L429.936 336.747L429.838 336.919C432.499 342.07 432.156 347.81 428.893 353.746C422.675 365.103 410.779 369.665 397.692 362.502L369.043 346.804L373.948 337.851H373.961Z"
  />
  <path
    d="M344.661 345.038L350.695 364.955L401.212 392.452L392.713 399.406L353.626 376.889L367.669 419.912L359.17 426.866L336.493 351.747L344.698 345.038H344.661Z"
  />
  <path
    d="M310.014 431.588C311.792 435.12 314.809 436.862 318.783 435.439C322.474 434.115 323.897 430.803 322.842 427.848C321.297 423.506 316.391 423.788 310.75 424.033C302.753 424.389 294.548 422.414 291.151 412.897C287.619 403.012 292.525 393.973 302.508 390.416C311.743 387.117 322.867 390.245 327.074 402.068L317.458 405.489C314.785 399.468 310.529 397.444 305.439 399.259C300.999 400.841 299.074 404.766 300.545 408.923C301.796 412.431 305.304 413.792 312 413.584C325.982 413.081 330.054 417.766 332.127 423.592C335.352 432.643 329.833 441.388 321.42 444.392C312.92 447.422 303.881 443.988 300.374 435.022L309.989 431.6L310.014 431.588Z"
  />
  <path
    d="M275.109 398.572L280.555 452.659L270.4 453.677L264.954 399.59L275.109 398.572ZM281.192 458.914L282.394 470.822L272.239 471.84L271.037 459.931L281.192 458.914Z"
  />
  <path
    d="M196.445 409.181C203.092 398.008 214.682 393.139 226.517 395.518C241.811 398.597 251.353 413.326 248.299 428.522C245.073 444.589 230.908 454.744 215.332 451.616C203.215 449.176 193.673 439.352 192.827 427.173L203.889 429.393C205.619 436.249 209.666 440.958 216.877 442.418C227.363 444.527 235.985 437.954 238.181 427.087C240.315 416.503 234.783 406.691 224.678 404.655C217.846 403.282 211.628 405.833 207.605 411.425L196.445 409.181Z"
  />
  <path
    d="M152.452 408.2C150.784 411.781 151.287 415.227 154.868 417.472C158.192 419.557 161.675 418.612 163.343 415.951C165.796 412.039 162.521 408.384 158.842 404.104C153.605 398.045 150.06 390.392 155.42 381.819C160.988 372.915 171.119 371.161 180.108 376.778C188.424 381.991 192.863 392.636 186.204 403.282L177.557 397.873C180.623 392.035 179.569 387.448 174.994 384.578C171.008 382.077 166.728 382.996 164.385 386.737C162.411 389.901 163.515 393.483 167.832 398.621C176.907 409.279 175.742 415.387 172.468 420.624C167.366 428.78 157.076 429.859 149.508 425.125C141.855 420.329 138.949 411.107 143.806 402.804L152.452 408.224V408.2Z"
  />
  <path
    d="M110.912 332.786C123.275 328.751 135.208 332.712 142.542 342.291C152.023 354.678 149.521 372.044 137.207 381.476C124.195 391.434 106.853 389.766 97.1882 377.159C89.6701 367.347 88.9588 353.672 96.342 343.946L103.198 352.899C99.9845 359.191 99.9355 365.409 104.4 371.259C110.9 379.746 121.717 380.482 130.523 373.737C139.096 367.175 141.389 356.137 135.122 347.969C130.891 342.438 124.526 340.267 117.805 341.825L110.888 332.786H110.912Z"
  />
  <path d="M123.532 312.181L55.5871 337.802L51.9813 328.248L119.927 302.627L123.532 312.181Z"
  />
  <path
    d="M112.053 250.883L106.178 251.202V251.399C110.937 253.79 113.917 259.824 114.297 266.974C114.923 278.638 109.244 289.946 90.1484 290.976L59.8797 292.607L59.3278 282.415L88.8116 280.833C100.181 280.22 105.43 275.707 104.939 266.41C104.437 257.003 97.6052 252.564 87.1313 253.128L57.8438 254.71L57.2919 244.518L111.562 241.599L112.065 250.908L112.053 250.883Z"
  />
  <path
    d="M112.74 228.869L45.4076 201.715L49.2218 192.247L73.1498 201.899L73.2234 201.715C69.3233 195.387 69.078 187.881 71.8253 181.049C77.5896 166.761 94.3674 159.783 108.925 165.658C123.029 171.348 130.928 187.439 125.2 201.629C122.269 208.914 116.64 214.47 109.306 216.371L109.232 216.555L116.517 219.486L112.74 228.856V228.869ZM105.111 175.126C95.557 171.275 84.1388 175.445 80.2142 185.183C76.4367 194.553 81.5019 205.591 91.056 209.442C101.064 213.477 112.114 209.16 116.002 199.508C119.743 190.223 114.935 179.087 105.099 175.113L105.111 175.126Z"
  />
</svg>