<svg width="512" height="512" viewBox="0 0 512 512" fill="none" xmlns="http://www.w3.org/2000/svg">
  <rect width="512" height="512" rx="100" fill="white" />
  <path
    d="M111.233 242.562H98.6563V241.58L96.6912 241.383V240.401H95.5121V239.418H94.5295V234.112H93.5469V233.326L93.3504 231.361V230.182H92.3678V226.841H91.3852V220.356L91.1887 219.57L90.4026 219.373L90.2061 208.958H89.2235V187.931H88.241V179.677H87.2584V169.262H86.2758V168.279L86.0793 160.615V153.54L85.2932 153.344L85.0967 143.125L84.1141 142.929L83.9176 141.356V139.981H82.935V134.675L81.7559 134.478V129.369H80.7733V127.207H79.9873V126.225H77.4326L76.6465 126.028V125.242H65.052V124.259H43.2387V125.242H38.9154V124.259L37.9328 124.063H36.9502L36.7537 123.473V123.08L35.7711 122.884V122.098H34.7885V119.936H33.8059V119.15L33.6094 117.578V116.792H32.6268V114.827L31.6443 114.63L31.4477 113.451L30.6617 113.648L30.4652 112.665L29.4826 112.469L29.2861 112.075V111.486H28.5V108.538H29.2861L29.4826 106.377H30.4652V105.394H31.4477V102.25L32.6268 102.053V101.071H33.6094V100.481L33.8059 100.088L37.7363 99.8915V98.9089H43.2387V98.1228L45.2039 97.7298V96.7472H56.6018V97.7298H61.7113L67.4102 97.9263L68.1963 98.1228L68.3928 98.9089L73.5022 99.1054V99.8915L78.4151 100.088H85.0967V101.071H117.522V100.088H118.504V101.071H123.81V101.857L124.793 102.053L126.365 102.25H126.955V103.036L129.116 103.232V104.215H132.457L133.243 104.411V105.197L141.693 105.394V106.18L142.676 106.377V107.556H143.659V108.342L144.838 108.538V108.931L144.641 109.324H145.82V110.503H146.803V111.289L147.982 111.486V112.665H148.965V113.058L149.161 113.648L149.751 113.844H150.144V114.827H150.93V122.098H150.144V126.225H148.965V128.386H147.982V129.369H145.82V130.351L144.641 130.548V131.531H142.676V132.513H126.955V131.531H124.793V130.548H121.845V129.369L118.701 129.172V128.386H118.111L116.539 128.19H115.36V127.207H110.251V128.19L109.072 128.386V129.369H108.286L108.089 130.155L107.893 133.692L108.089 136.837L108.286 137.819H109.072V142.339L109.268 147.055L110.054 147.252L110.251 147.841V170.244H111.233V171.227L111.43 172.603L111.626 173.389H112.216L112.412 174.568V187.931H113.395L113.592 201.687L114.378 201.883L114.574 202.473V204.831H115.36V217.408H116.343V219.57H117.522V228.02H118.504V234.112H117.522V237.256L116.343 237.453V238.435H115.36V239.418H114.574V240.401H112.412V241.383H111.43L111.233 242.169V242.562Z"
    fill="black" />
  <path
    d="M224.121 242.268H218.422V241.285H215.867V239.713H215.278V238.927H213.902V220.847L214.098 220.061H214.688V219.275L214.885 217.113V215.541H215.474V214.952L215.671 211.414V208.86H216.457V202.768H217.243V196.479L217.439 195.89L218.029 195.693V193.335L218.225 190.387V189.798H218.815V189.012L219.011 186.653V184.885H219.601L219.797 179.775H220.584V173.094L216.457 173.29V173.88H209.775V173.29L207.417 173.094L207.22 172.504L205.648 172.308V171.522H204.862V170.736H204.076L203.88 170.343V169.753H203.094V169.163H202.308V168.181H201.521V166.412H200.735V165.626L199.753 165.43V164.644H198.967V163.661H198.181V162.875L197.395 162.678V162.089L196.609 161.892V160.32L195.822 160.124L195.626 159.731V159.338H194.84V157.372H194.054V155.604H193.268V154.032L192.285 153.835V152.263L191.696 152.067L191.499 151.28H190.713V149.512H189.927V148.529H188.944V147.94L189.141 147.743L188.355 147.547L188.158 147.154V146.761H187.372V145.975H186.586V144.992L185.8 144.795V144.402L185.604 144.206H184.031V143.223H183.245V142.241L183.049 141.455H182.459V140.669H181.673V139.686L180.887 139.489V138.703L180.691 137.917H179.119V136.935H177.35V136.149H176.564V135.166H175.778V134.184H174.206V133.397L172.437 133.201V131.432H171.651V130.646H170.865V129.86H169.293L169.096 127.895H168.31V127.109H167.524V126.126H166.738V125.34H165.952V124.554H165.166L164.969 124.161V123.375H164.183V122.589H162.611V121.803H161.825V120.034L160.843 119.838V119.052H159.27V118.069L159.074 117.283H158.484V116.497L156.716 116.301V114.532H155.93V112.96H156.716V109.619H157.698V107.654L157.895 107.064H158.877V106.278H159.86V105.492H160.646V103.724H161.629V102.937H162.808V102.151H165.755V101.365L172.241 101.169V100.579H173.42L177.153 100.383H180.298V101.169H180.691L181.477 101.365H181.87L182.066 101.758V102.151H182.656L182.852 102.544V102.937H184.425V103.724H185.211V105.492H185.997L186.193 105.885V106.278H187.765V107.064H188.551L188.748 107.85V108.833H190.124L190.32 109.619H191.892V110.405H192.678V111.977H193.464V112.96H194.054V113.746H194.84V114.532H195.233V115.318H196.019V115.711L196.216 116.104L197.395 116.301V117.087H198.181V118.659H198.77V119.641H200.146V120.427H200.735V122H202.111V122.393L202.308 122.786L202.897 122.982V123.768H203.29L203.487 124.554V125.34H204.076V126.126H205.648V126.912H206.238V127.895H206.827V129.467H207.613V130.253H208.203V131.236H208.989V132.022H209.579V132.808H210.168V133.594H210.954V134.38L211.544 134.577V135.363H212.33V136.149H212.919V136.935H213.509V138.507L214.492 138.703V140.276H214.688L214.885 142.044H215.671V142.83H216.26V143.616H216.85L217.046 145.188H217.832V146.171H218.225V146.957H219.011V148.529L220.19 148.726V149.315H223.531L223.728 148.922V148.529H224.317V146.957H225.103V146.171L225.3 144.206V142.83H225.693V142.044L225.889 140.865V140.276H226.676V133.004L227.069 132.808L227.265 130.646V128.681H228.051V117.087H227.265V111.977H228.051V111.191H227.265V110.405H228.051V102.937H229.23V102.151H230.409V101.758L230.606 101.169H231.785V100.383H232.964V99.5967H233.75V98.8106H236.108V98.4176L236.305 98.0246H236.501L237.287 97.6315L237.484 97.2385V97.042H240.628L244.165 97.2385L244.362 97.6315V98.0246H245.541V98.8106H248.096V99.5967H250.061V100.383L251.24 100.579V102.937H252.419V106.278H253.598V106.868L253.795 110.995V114.532H254.974V126.126H254.188V132.022H253.402L253.205 133.594H252.419V138.507L251.633 138.703V143.616H250.847V147.35L250.651 150.887L250.257 151.084H250.061V158.355H249.078V161.696H248.292V165.037L247.506 165.233V169.163L246.72 169.36V175.845L245.934 176.042V177.221L245.738 178.4H244.952V185.081H244.165V186.653H243.379L243.183 199.034L242.2 199.23V208.27H241.414V208.86L240.825 210.039V210.825H240.039V218.096L240.825 218.293V226.546H240.235L240.039 227.136V231.263L238.86 231.459V232.245H237.68L237.484 233.031V233.817H236.501L236.305 234.8V235.586H235.519V236.372H234.34V237.355L234.143 238.141H233.161V238.73L232.571 238.927H229.82V239.713L228.641 239.909V240.499L227.462 240.695V241.285L225.3 241.481V242.071L224.121 242.268Z"
    fill="black" />
  <path
    d="M290.434 245.215H284.735V244.233H283.556V243.25H282.377V242.268H281.198V241.285H280.019V239.32H278.839V236.569L277.66 236.372V232.638H276.678V226.743H275.695V222.026H274.713V218.293L274.516 214.362L274.123 214.166H273.73V206.305H274.516L274.713 203.554V200.606H273.73V198.051L273.534 194.514V193.925H272.747V193.138L272.551 188.226V184.099H271.765V171.325L271.568 170.736H270.782V151.084L270.586 150.298H269.8V144.402H268.817V141.455H268.031L267.835 140.865V136.738H266.852V134.773H266.066L265.869 133.987V128.092H265.083L264.887 127.306V123.179H263.904V120.427L262.922 120.231V117.48H262.136V117.087L261.939 116.694V115.515H261.153L260.956 114.532V113.353H259.974V108.833H260.956V107.654H261.939V106.868H262.922V105.885H263.904V104.706H264.887V103.724L265.083 102.741H266.066L265.869 101.955H269.8L269.996 100.972H279.036V99.9897H282.18V99.0071H284.145V98.0246H290.237V97.042H293.382V96.649L293.578 96.0594H294.364V95.0768H298.491V94.2907L308.12 94.0942H317.553V95.0768H321.68V96.0594H323.842V97.042H325.807V98.0246H327.969V99.0071H329.934V99.9897H330.916V100.383L331.113 100.972H332.881L333.078 101.758L335.043 101.955V102.741H337.008V103.92H337.991V104.706H339.17V105.689L341.135 105.885V106.671L343.297 106.868V108.636L345.065 108.833V114.335L346.048 114.532L346.245 116.497H347.227L347.424 119.248L348.21 119.445V120.034L348.406 121.607V122.196H349.192V135.756H348.406V136.542L348.21 139.883V142.634H347.424V143.616L347.227 145.385L347.424 146.368H348.21V155.997L347.424 156.193L347.227 159.927H346.441L346.245 161.892H345.458L345.262 169.557H344.476L344.279 171.522H342.707L342.511 171.718V173.487H341.528V175.452H340.546V177.417H339.563V178.203L338.58 178.4V179.186H337.794L336.419 179.382H335.633V180.168L334.65 180.365V182.33H333.864L333.667 182.723V183.116L331.899 183.313L331.702 184.099V185.081H330.916L330.72 186.064H329.934L329.737 187.046H328.951V188.029H327.969V189.012H326.986V189.994H325.021V190.977H322.073V191.959H321.287L321.09 192.352V192.745L320.304 192.942V193.925H319.322V194.318L319.125 194.711L317.357 194.907V195.693L315.391 195.89L315.195 196.676L314.409 196.872V197.265L314.212 197.658H311.658L311.461 198.248V198.641H309.496V199.624H305.762V200.606H302.814V201.589H300.849V202.571H299.867V204.536H298.884V207.288H299.867V213.183H300.849V214.166H301.832V215.148H302.814V221.044H301.832V226.743H302.814V233.621H301.832V235.389H300.849V236.372H299.67V237.355H298.491V238.337H297.312V240.302H296.133V241.285H294.954V242.268H293.775V243.25H291.416V244.233H290.434V245.215ZM300.849 177.417V178.4H302.618V177.417L304.19 177.221V176.435L306.745 176.238V175.452H308.317V174.862L308.513 174.469L310.086 174.273V173.683H310.872V172.701L312.64 172.504V171.718H314.409V170.932H315.195V170.539L315.391 169.95H315.981V169.163H316.767L316.964 168.377L317.553 168.181L317.75 167.788V167.395L319.322 167.198V165.43H320.108V164.644L321.877 164.447V163.858H322.663V161.106H323.645V158.748L324.431 158.552V157.766H325.217V156.979H326.003L326.2 154.425H326.986V145.975L326.789 137.131H326.003L325.807 135.756L325.021 135.559V133.987H324.235V133.201L325.021 133.004V130.843H324.235V129.074H323.252V128.288H322.466V126.519H321.483V125.537H320.697V124.751H318.929V123.965H318.339V122.982L316.571 122.786V122.196L314.802 122V121.213H313.033V120.427H310.479V119.445H306.155V120.231H305.566L304.387 120.427H303.6V121.41H295.936V122.393H294.954V123.179L293.185 123.375L292.989 124.161L292.203 124.358V125.144H291.22V131.039H290.237V132.022H291.22V135.952H292.203V139.883H292.989V145.385L293.971 145.582L294.168 153.639H294.954V156.783H293.971L294.168 159.141L294.954 159.338V166.412H295.936V169.36L296.133 172.701H296.919V175.452H297.902V176.238L298.884 176.435V177.221L300.849 177.417Z"
    fill="black" />
  <path
    d="M431.423 245.215H414.523L414.13 245.019V244.233H407.645V243.054H405.68V241.874H403.518V240.892H402.732L402.535 240.302V239.713H400.57V238.534H398.605V237.355H397.426V236.372H395.461V235.193H393.299V234.014H392.316V231.852H391.334V230.673H390.351V229.69L389.172 229.494V228.511H388.386V227.332H387.207V226.153H385.045V225.171H384.259V223.992H383.08V222.812H382.098V221.633H379.936V220.651H378.953V219.668L377.971 219.472V218.882L377.774 218.293H376.988V217.31H375.809V216.131H375.023V214.952L374.826 213.773H373.844V212.79H372.861L372.665 210.628H371.879L371.682 209.449V208.27H370.896V207.877L371.093 207.288H369.717V203.947L368.734 203.75V202.768H367.752L367.555 202.178V201.785L366.769 201.589L366.573 199.427H365.59V198.248H364.804L364.608 197.658V197.265H363.429V194.711H362.839L362.446 192.745H361.66V190.387H360.677V189.405L360.481 188.226L359.498 188.029L359.302 185.867H358.516V184.885H357.533V184.099L357.337 182.33V181.544H356.55L356.354 180.561V170.146H355.568L355.371 169.556V160.124H354.389V159.141L354.192 153.049V147.94L355.175 147.743V144.206L355.371 143.42H356.157V138.9H357.337V135.559H358.319V131.825L358.516 131.039H359.498V126.519H360.481V124.358L360.284 123.179H359.498V118.855L360.481 118.659V117.676H363.429L363.625 117.087V116.497L364.608 116.301V115.318H365.59V113.156H367.555V111.977L367.752 110.995L368.538 110.798V108.636H369.521L369.914 107.457H370.503L370.7 106.278V105.296H371.682V104.706L371.879 104.313L372.665 104.117V103.134L374.63 102.937V100.972L375.809 100.776V99.5967H377.774V97.435H380.918V96.4524H381.705L383.277 96.2559H384.063V95.2733H387.993V94.8803L388.19 94.2908L388.386 94.0942H397.622L398.212 94.2908L398.408 94.6838V95.0768L399.391 95.2733H408.627V96.2559H410.396V98.4176H411.575V99.5967H412.558V100.579L412.754 100.972H414.719V101.955H415.702V102.937H421.794V102.544L421.99 101.955H425.921V102.937H428.279L431.423 103.134L432.013 103.331V104.117H439.284L439.48 103.527V103.134H441.249L441.446 104.117L446.358 104.313V104.706L446.555 105.296H448.717L449.699 105.492V106.278H451.468V106.868L451.664 107.457H452.647L453.63 107.654V108.243L453.433 108.636H454.612V109.816H455.595V110.798L456.577 110.995L456.774 111.388V111.977H458.739V113.156H459.722V114.335H460.901V115.318H461.687V116.497H462.866V117.676H463.848V119.838H464.831V122.196H465.814V123.179H466.993V124.358H467.975V125.34L469.94 125.537V126.519H471.906V127.699H473.085V128.878H474.067V130.057H475.246V132.218H476.032L476.229 134.38V136.542L477.211 136.738V141.258H478.194V144.402L479.373 144.599V147.743L480.356 147.94V150.101L481.338 150.298V153.442H482.124L482.321 154.228V155.997L482.124 156.783L483.303 156.979L483.5 162.482V168.574L483.303 169.163H482.91L482.321 169.36L482.517 170.343V171.325H483.303L483.5 172.111V176.042L483.303 177.024H482.517V184.885H481.535V187.046L481.338 189.208L480.356 189.405V192.745H479.57L479.177 194.711L478.391 194.907L478.194 195.89L477.408 196.086V198.248H476.229V201.589H475.443V203.75H474.264L474.067 206.109H473.281V208.27H472.299L472.102 210.628H471.316V212.79H470.333L470.137 214.952L469.351 215.148L469.154 217.113L468.172 217.31V218.293L467.189 218.489V219.472H466.207L466.01 220.061V220.651H465.224V221.24L465.027 221.633L464.045 221.83V222.812L462.08 223.009V223.402L461.883 223.992H461.097V224.581L460.901 225.171H459.918V226.153L457.953 226.35V226.743L457.756 227.332H456.774V228.511H454.809L454.612 229.101V229.494H454.023V230.673L451.861 230.87L451.664 231.263V231.852H449.896V234.014L447.734 234.21L447.538 234.603V235.193H446.751L446.555 235.783V236.176L445.769 236.372V237.355H444.59V238.534H442.625V239.713H440.463V240.892H438.498V241.874H437.515V243.054H436.336V244.036L432.209 244.233V245.019L431.423 245.215ZM423.956 219.472L426.903 219.668L428.672 219.472V219.079L428.868 218.489L431.62 218.293L431.816 217.31L433.585 217.113V216.327L434.567 216.131V215.148L436.533 214.952V213.773H437.515V212.79H439.48V211.808H440.463V210.628H441.249V210.039L441.446 209.646L443.214 209.253V208.467L445.179 208.27V207.877L445.376 207.288H445.965L446.162 206.109V205.126L447.144 204.929V203.947L449.11 203.75V203.161L448.913 202.768H449.896V201.785L450.878 201.589L451.075 200.999V200.606H452.057V199.427H452.843V197.265H453.826V194.907H454.809V192.745H455.791V189.994L455.988 189.405H456.774V188.422L456.97 186.653V185.867H457.756V181.544H458.935V177.024H457.756V164.644H458.935V163.661H457.756L457.56 156.783H456.577V153.442H455.398V149.119L454.612 148.922L454.416 147.94L453.63 147.743V145.582H452.647V144.992L452.45 144.402H451.861L451.664 144.009V143.42L451.075 143.223H450.878L450.682 141.258L449.896 141.062L449.699 140.669V140.079H448.717V138.9H447.931V137.917H446.948V136.738H445.965V135.756L444.983 135.559V134.577L444 134.38V133.397H443.018V132.218H442.035V131.039H439.873L439.087 130.843V130.057L437.319 129.86V128.878H435.354V127.699H423.759V126.519H420.811V125.93L420.615 125.537H420.025L418.65 125.34L418.06 124.947V124.554L417.864 124.358L412.165 124.161V123.179H409.413V122.196H406.466V121.017H403.518V119.838H399.784V118.659H396.836V119.838H395.854V121.017H393.889V121.607L393.692 122.196H391.923V123.179H390.941V125.34L390.155 125.537L389.958 125.93V126.519L388.976 126.716V128.681L387.993 128.878V130.057H387.01V131.039H386.224V133.201L386.028 135.559H385.242V137.917H384.063V141.258H383.277V144.402H382.294V157.766L381.312 157.962L381.115 166.805H382.294V170.146H383.277V172.504H384.259V173.683H385.242V177.024H386.224V180.365H387.01V181.544H387.993V183.706H389.172V185.867H389.958V187.046L390.155 188.226H390.941V190.387H391.923V191.566H392.906V193.728H393.889V194.907H394.871V197.265H395.854V198.248H396.836V199.427H397.819V200.606H398.801V201.589H399.784V202.768H400.767V203.947L401.749 203.75V204.929L402.535 205.126L402.732 205.715V206.109H403.714V207.288H404.5V208.467H406.466V209.449L407.252 209.646L407.448 210.039V210.628H408.431V211.611L409.02 211.808H409.413V212.79H411.182V213.773H413.147V214.362L413.344 214.952L415.112 215.148L415.309 216.131L416.291 216.327V217.31H419.043V218.293H420.222L422.187 218.489H422.973V219.472H423.956Z"
    fill="black" />
  <path
    d="M73.1092 417.145H66.0346L65.8381 415.966H64.659V414.983H63.6764V414L62.4973 413.804V411.839H61.7113V407.712L61.3182 402.996V402.013H60.3356V401.03H59.5496V398.083H58.3705L58.174 367.033H57.3879V361.531L56.9949 356.421L56.2088 356.225V344.434L56.0123 343.648H55.2262V333.036H56.0123L56.2088 331.857V328.712H55.2262V321.245H54.0471V318.101H52.868V315.939H51.8854V310.436H50.7063V304.148H49.7238V299.824H48.5447V295.698H47.7586V294.912L47.5621 293.143V292.553H46.776L46.383 289.606V287.051H45.5969V285.086L46.383 284.889V272.312H47.5621V269.168H48.5447V265.827H50.7063V263.665H51.8854V262.486H52.868V261.7L54.0471 261.504V260.325H55.2262V259.539H58.174V258.949L58.3705 258.556H66.8207V257.377H70.9475V256.394H76.45V255.215H92.7608L93.5469 255.412V256.394H100.818V257.377H102.783L102.98 258.556H105.141V259.539H108.286V260.325H109.072L110.84 260.718H111.626V261.504L116.932 261.7V262.486H118.897L119.094 263.272V263.665H120.077V264.845H122.042V265.827H123.221V267.006H124.203L124.4 267.989H125.383L125.579 269.168H126.365V270.151H127.544V272.312H128.527V275.456H129.706V278.601H128.527V281.941H127.544V282.728L125.383 282.924V283.907L124.203 284.103V285.086H123.221V286.068H120.077V286.658L119.88 287.051H119.291L115.557 287.247L111.43 287.051H110.644V286.265L110.447 286.068H108.482V285.086H106.32V284.103H105.338L101.015 283.907H97.6737V282.924H93.5469V281.941H85.6862L85.0967 281.745L84.9002 280.762H77.4326V281.941H75.2709V282.728L73.1092 282.924V283.907H72.3231V298.842H73.1092L73.3057 303.165L74.2883 303.362V312.598H73.1092V314.76H74.2883V315.939L74.4848 316.921H75.2709V319.083H76.45V322.227L77.4326 322.424V324.586H78.6117V325.372H79.5942V326.551L81.7559 326.747V328.712H83.7211V329.695H85.8828V330.874H89.2235V331.66L91.3852 331.857V333.036H93.5469V333.822H109.465V333.036H121.059V333.822H124.203V335.001L126.365 335.197V335.983H128.527V337.163H129.509V341.486L129.706 345.809H128.527V346.595L127.544 346.792V347.774L126.365 347.971V348.757H125.383V349.936H124.203V350.919H123.221V352.098H122.042L122.238 352.687V353.08H121.256V353.866L121.059 354.259H115.753V355.242H109.465V356.225L108.679 356.421H104.159V357.404H97.6737V358.386L96.8877 358.583H90.2061V357.404H83.7211V358.583H82.935V358.976L82.7385 359.369L81.7559 359.565V360.548L80.7733 360.745V361.727H79.5942V363.692L80.1838 363.889H80.7733V370.177H81.5594L81.7559 380.789H82.7385L82.935 384.13H83.7211V392.58H84.9002L85.0967 394.742H85.8828V398.083H87.0619V401.03H85.8828V402.013H85.0967L84.9002 406.533H83.7211V408.695H82.935V410.463L81.7559 410.856V411.249L81.5594 411.839H80.7733V412.821H79.5942V413.804L77.4326 414V414.983H74.4848V415.966H73.1092V417.145Z"
    fill="black" />
  <path
    d="M200.735 411.741H196.019V410.561H189.927V409.382H187.569V408.203H185.014V407.024L184.228 406.828H180.298V405.649H177.939V403.88L177.743 403.29H176.76V402.111H175.581L175.385 400.932H173.223L173.027 399.753H172.044L171.847 399.163V398.377H170.668V397.395L168.31 397.198V396.019H167.131V393.858L165.952 393.661V392.482H163.594V391.892L163.397 391.303H161.039V390.124H159.86V387.569H158.681V386.586H157.502V385.211H156.323V382.853H153.965V381.674H152.589V379.315H151.41V376.957H150.231V375.778H149.248V374.599H148.069L147.872 374.009V373.223H146.693V372.241L145.514 372.044V369.686H144.335V368.507H141.977V364.97H140.798V362.611L139.422 362.415V360.253H138.243V357.895H137.064V355.34H135.885V350.427H134.706V320.557H135.885V319.378H137.064V313.286H138.243V308.569H139.422V306.408L139.619 303.46V302.674L140.798 302.477V300.119H141.977V298.94H143.156V291.866H144.335V290.686H145.514V286.953H146.693V284.594H147.872L148.069 282.236L150.231 282.04V281.057H151.41L151.606 280.468V279.878L152.589 279.682L152.785 278.699L153.965 278.502V277.323H155.144V276.341L156.323 276.144V275.162H157.502V271.428H158.681V269.07H159.86V266.711H161.039L161.236 265.336V264.157H162.415V262.978H164.773V261.799H165.952V260.619L168.31 260.816H170.668V261.799H171.847V262.978H173.027V264.157H174.206V265.336L176.564 265.532L176.76 266.122V266.711H187.569V267.694H188.355L193.071 267.891H197.198V269.07H200.735V270.249H204.273V271.231L207.81 271.428V272.607H211.74L212.723 272.803V273.786L215.081 273.983V274.965L216.26 275.162V276.144L217.439 276.341V277.323H219.797V279.682H220.977L221.173 281.057V282.236H222.156V282.826L222.352 283.415H223.335L223.531 284.201V286.953H224.514L224.71 287.935V290.686H225.889V291.866H227.069V293.045H228.248V295.206L229.427 295.403V296.582H230.606V298.94H231.785V300.119L232.964 300.316V303.264L233.161 306.211H234.143L234.34 315.644L235.322 315.841L235.519 319.378H236.501L236.698 321.736V324.094L237.68 324.291V325.077L237.877 326.845V327.632L239.056 327.828V331.365H240.039L240.235 332.348V338.636H241.414V342.37L241.218 343.353H240.235V357.699L239.056 357.895V362.808L238.86 363.594H238.467L237.877 363.791V368.507L237.68 373.223L236.698 373.42V374.206L236.501 375.975V376.957H235.322V381.674H234.34V382.853H233.161L232.964 385.211H231.981L231.785 385.997L231.981 387.176V387.569H230.606V390.124H229.427V392.482H228.248V393.661H227.069V394.84H225.889V397.198L222.352 397.395L222.156 398.377L221.173 398.574L220.977 399.163V399.753H219.797V400.932H218.618V402.111H217.439V403.29H216.26V404.469H213.902V405.649H211.544V406.828H208.989V408.203H207.81V409.382H204.273V410.365L200.735 410.561V411.741ZM196.019 381.674V382.853H203.094V381.674H205.452V379.512L207.81 379.119V378.726L208.007 378.136H210.365V376.957H211.544V375.778H213.902V373.42L214.885 373.223L215.081 372.83V372.241H215.671L216.26 372.044V368.507H217.439L217.636 363.791L218.618 363.594V362.415H219.797V348.069H218.618V339.816H217.439V329.007L216.26 328.811V322.719L216.064 321.736H215.278L215.081 320.753V314.465H213.902V310.928H212.723V310.338L212.526 309.749H211.544V306.211H210.365V305.032H209.186L208.989 302.477H207.81V301.298H206.631V300.119H204.273V299.137L201.914 298.94L201.718 297.761H199.556V297.172L199.36 296.582H198.377L198.181 295.992V295.403L196.019 295.206V294.224H193.464V295.403H181.477L181.28 296.582H179.119V297.565L176.76 297.761V298.351L176.564 298.94L175.581 299.137L175.385 299.53V300.119H171.847V301.298H169.489V302.477H168.507L168.114 304.836H167.131V307.39H165.952V309.749H164.773V314.465H163.594V315.251L163.397 316.43V316.823H162.415V318.002L162.218 319.378H161.039V324.291H159.86V329.99L158.681 330.186V333.724H159.86V339.619L161.039 339.816V343.156L161.825 343.353H162.415V348.069H163.594V349.248H164.773V351.803H165.952V355.34H167.131V357.699L168.31 357.895V359.074H169.489V361.236L170.668 361.432V362.415H171.847V363.594H174.206V364.97L174.402 366.149H175.385L175.581 368.507H177.939V369.686H180.298V370.865H182.656V371.651L182.852 372.241H183.835V373.42H185.014V375.778H187.569V376.957H189.927V378.136H192.285V379.315H193.464V381.674H196.019Z"
    fill="black" />
  <path
    d="M302.225 409.775H291.023V408.793H286.7V407.81H273.14V406.631H270.979V405.452H269.8V404.273H268.621V403.29H267.638V402.111H266.459V400.932H265.28V398.77H264.101V396.609H263.118V388.748H262.136L261.939 381.084L260.956 380.887V379.708H262.136V373.42L261.939 366.149V365.166H260.956L260.76 364.184V356.323H259.777V345.122H260.76V339.423H259.777V330.776L258.598 330.579V323.505L258.402 322.915H257.616V318.395H256.437V310.535H255.258V305.032L254.078 304.836V299.333L253.096 299.137V292.652H251.917V288.328L250.738 288.132V287.149L249.755 286.953L249.559 286.56V285.97H248.576V283.808L247.593 283.612L247.397 282.629H246.414V270.249H248.576V269.266H249.559L250.738 269.07L250.934 268.48V268.087H251.917V265.925H253.096V264.746H254.078V263.567H257.616V262.585H260.76V263.567H264.101V264.746H267.638V265.925H268.621V267.105H269.8V269.266L270.979 269.463V273.59H271.961V274.572L272.158 276.144V277.127H273.14V277.716L273.337 278.109H274.123V279.092L274.32 280.664V281.647H275.302V287.149H276.481V290.293H277.66V291.473H278.643L278.839 296.975L279.822 297.172V300.512H281.001V309.356H281.984V310.142L282.18 312.5V313.875H283.163V321.54L284.342 321.736V326.059L284.145 327.238H283.359L283.163 328.418V330.579L284.342 330.776V337.457H285.325L285.521 338.44V340.602L285.325 341.781H284.342V343.942H285.325V344.532L285.521 349.052V353.965H286.504V366.542L286.7 367.524H287.683V375.385H288.665V377.547H289.844V379.708H291.023V380.887H293.382V382.067H295.74L299.081 381.87H299.867V381.477L300.063 381.084L314.409 380.887V379.708H318.929V378.726L321.09 378.529L321.287 378.136V377.547H324.431V376.564H325.414L334.257 376.368H342.314V377.547H343.297L343.493 378.136V378.726H346.834V379.708H350.175V380.887L352.337 381.084V382.263L352.533 384.425V385.407H353.516V394.251L352.533 394.447V395.037L352.337 396.609V397.591L350.175 397.788V398.77H348.013L347.817 399.95H346.834V400.932L345.852 401.129L345.655 401.522V402.111H341.332V403.29H330.13V404.273H327.969V405.452H326.789V406.042L326.593 406.631H317.946L317.75 407.614L316.767 407.81V406.631H315.588V407.81H308.906L308.71 408.203V408.793H302.225V409.775Z"
    fill="black" />
  <path
    d="M393.299 410.954H387.993V410.168H385.831V408.989H384.652V408.007H382.491V407.024H381.508V405.845H380.329V404.862H379.15V402.701H378.167V401.718H376.988V400.736L376.006 400.539V399.753L374.827 399.557V398.574H373.844V397.591H372.468L372.665 395.43H373.844V392.482H374.827V387.176H375.809V384.032H374.827V377.743H373.844V368.507H372.468V363.201H371.486V358.092H370.503V354.947H371.486V351.803H370.503V338.44H369.521V327.042L368.341 326.845L368.145 313.286H367.162V305.032H365.983V301.888H365.197V301.495L365.001 300.905H363.822V297.761H362.839V295.599H361.66V294.617H360.481V293.634H359.498V291.473H358.516V282.236H359.498V281.254L360.481 281.057V279.092H361.66V278.109H362.839V276.93H365.001V275.948H367.162V274.965H368.145V273.786H370.503V272.803H374.827V271.821L376.988 271.624V270.838H379.15V269.659H382.491V268.677H384.652V267.694H386.814V266.711H390.155V265.532H392.12L392.316 264.943V264.55H398.998V263.567L403.321 263.371V262.585L404.107 262.388H408.627V261.406H418.257L418.65 261.995V262.388L419.632 262.585V263.371L422.973 263.567V264.55H425.921L426.117 265.532H427.296V266.711H428.279V267.498L430.441 267.694V268.677H431.62V269.659L433.781 269.856V270.838H434.764V272.803H436.926V273.393L437.122 273.786H438.105V274.965H439.284V276.93H440.266V277.913L441.446 278.109V279.092H442.428V280.075H443.607V280.664L443.804 281.057L445.769 281.254V282.236H446.751V284.201H447.931V285.184H449.11V287.346H450.092V289.507H451.271V290.49H452.45V291.473H453.433V293.634H454.416V295.599H455.398L455.791 297.172V298.744H456.184L456.577 298.94L456.774 302.084V305.032H457.756V308.373L457.953 309.159H458.739V314.268L460.115 314.465V318.592H461.097V321.54L462.08 321.736V323.701H463.062V324.487L463.259 326.059V326.845H464.438V330.972H465.421V339.226L466.403 339.423V345.515L465.421 345.711V347.676H464.438V350.82H463.259L463.062 352.786L462.08 352.982V355.93H461.097V359.074L460.115 359.271L459.918 361.236H458.739V364.38H457.756V366.345L456.774 366.542V368.507H455.791V369.49H454.416V371.455L452.45 371.651L452.254 372.044V372.634H451.271L451.075 375.778H450.092V377.743L449.11 377.94V378.726L448.127 378.922L447.931 379.315V379.905H445.769V380.887H444.786L444.59 381.87L443.607 382.067V385.014H442.428V386.193H441.249V389.338H440.463L440.266 391.303H439.284V392.482H438.105V393.465H436.926V395.43H436.14V396.609H433.781V397.591H432.602V398.574H431.62V400.539L430.441 400.736V401.718H429.458V403.683L428.475 403.88L428.279 405.845L427.296 406.042V406.828L424.938 407.024V408.007H423.956V408.989H421.794V410.168H418.257V410.954H410.986V410.168H405.287V408.989H403.321V410.168H393.299V410.954ZM406.466 388.748L406.662 389.338H407.645L408.627 389.141V388.355L410.789 388.159L410.986 387.766V387.176H411.968V386.193H412.951V385.211L413.933 385.014V384.228L415.112 384.032L415.309 383.049L416.291 382.853V382.067L417.274 381.87L417.471 380.887H418.65V379.905H419.632V378.922H420.615V377.94H421.794V376.761H422.973V375.778H423.956V374.795L424.152 373.616H425.135V372.634H426.117V371.651H427.296V369.49H428.279V367.328H429.458V366.542L430.244 366.345L430.441 364.38H431.62V363.398L432.602 363.201L432.799 362.218H433.781V359.074H434.764V356.912H436.14V355.93H436.926V354.947H438.105V351.803H439.284L439.48 349.838H440.266V349.052L440.463 347.48V346.694H441.249V335.099H440.463V333.92L440.266 331.955V330.972H439.284V327.632L438.891 326.845H438.105V319.771L436.926 319.574V316.627H436.14L435.943 310.142H434.764V308.176H433.781V306.015H432.799L432.602 304.05L431.62 303.853V303.067L430.441 302.87V300.905H428.279V298.94L427.296 298.744V297.761H426.117V296.778H425.135V295.796L424.152 295.599L423.956 294.617H422.973V293.634H421.794V292.652H419.829L419.632 290.49H418.65L418.257 289.507L416.291 289.311V288.328H413.933V287.346H410.986V286.953L410.789 286.363H404.304V287.346H403.321V288.328H400.963V289.311L394.478 289.507V290.49H393.299V291.473H392.316L392.12 293.634H391.137V300.905H390.155V306.015L391.137 306.211V310.142H392.12V310.928L392.316 315.251V318.592H393.103L393.299 319.378V322.719H394.478V339.423H395.461L395.657 342.567V345.515L396.443 345.711L396.64 350.82V355.93H398.998V359.074L399.981 359.271V361.236H398.998V365.166L398.015 365.363L397.622 367.328L398.801 367.524L398.998 374.795H399.784L399.981 375.582V377.94H400.963V382.067H402.142V385.014H403.321V386.193H404.304V388.355H406.466V388.748Z"
    fill="black" />
</svg>